<svg width="35" height="35" viewBox="0 0 35 35" fill="none" xmlns="http://www.w3.org/2000/svg">
<path d="M17.5 3.89958C15.3453 2.04677 12.2216 1.77114 9.37781 2.05552C6.06594 2.3902 2.72344 3.52552 0.640938 4.4727C0.449857 4.55961 0.287821 4.69966 0.174171 4.87615C0.0605209 5.05264 5.8125e-05 5.2581 0 5.46802L0 29.5305C5.06669e-05 29.7135 0.0460187 29.8936 0.133694 30.0542C0.221369 30.2149 0.347948 30.3509 0.501836 30.45C0.655725 30.549 0.832004 30.6078 1.01453 30.6211C1.19705 30.6343 1.37998 30.6016 1.54656 30.5258C3.47594 29.6508 6.58438 28.5986 9.59656 28.2946C12.6788 27.984 15.2622 28.4849 16.6469 30.213C16.7494 30.3408 16.8792 30.4439 17.0269 30.5147C17.1745 30.5855 17.3362 30.6223 17.5 30.6223C17.6638 30.6223 17.8255 30.5855 17.9731 30.5147C18.1208 30.4439 18.2506 30.3408 18.3531 30.213C19.7378 28.4849 22.3213 27.984 25.4013 28.2946C28.4156 28.5986 31.5263 29.6508 33.4534 30.5258C33.62 30.6016 33.803 30.6343 33.9855 30.6211C34.168 30.6078 34.3443 30.549 34.4982 30.45C34.6521 30.3509 34.7786 30.2149 34.8663 30.0542C34.954 29.8936 35 29.7135 35 29.5305V5.46802C34.9999 5.2581 34.9395 5.05264 34.8258 4.87615C34.7122 4.69966 34.5501 4.55961 34.3591 4.4727C32.2766 3.52552 28.9341 2.3902 25.6222 2.05552C22.7784 1.76895 19.6547 2.04677 17.5 3.89958Z" fill="#2B7FFF"/>
</svg>
