<svg width="36" height="36" viewBox="0 0 36 36" fill="none" xmlns="http://www.w3.org/2000/svg">
<g clip-path="url(#clip0_1901_7701)">
<path d="M5.41214 2.75C5.33341 2.75 5.2579 2.78128 5.20222 2.83695C5.14655 2.89263 5.11527 2.96814 5.11527 3.04688V19.0781C5.11527 19.242 5.24827 19.375 5.41214 19.375H28.5767C28.6554 19.375 28.731 19.3437 28.7866 19.288C28.8423 19.2324 28.8736 19.1569 28.8736 19.0781V3.04688C28.8736 2.96814 28.8423 2.89263 28.7866 2.83695C28.731 2.78128 28.6554 2.75 28.5767 2.75H5.41214ZM29.193 23.27L30.048 27.1294C30.0622 27.195 30.0615 27.263 30.046 27.3284C30.0305 27.3938 30.0006 27.4549 29.9585 27.5072C29.9164 27.5595 29.8631 27.6018 29.8026 27.631C29.7421 27.6601 29.6758 27.6754 29.6086 27.6756H16.9938H4.37902C4.09402 27.6756 3.88027 27.4025 3.93964 27.1294L4.79464 23.27C4.84214 23.0681 5.02027 22.9256 5.23402 22.9256H28.7548C28.9686 22.9256 29.1467 23.0681 29.1942 23.27M10.8414 31.2381H23.1463C23.3363 31.2381 23.4788 31.06 23.4313 30.87L22.98 29.0888C22.9633 29.0254 22.9265 28.9691 22.8751 28.9284C22.8237 28.8877 22.7605 28.8648 22.695 28.8631H11.2926C11.162 28.8631 11.0433 28.9581 11.0076 29.0888L10.5564 30.87C10.5089 31.06 10.6514 31.2381 10.8414 31.2381Z" fill="white"/>
<path d="M34.7725 32.0634L32.4379 21.0375V1.5625C32.4379 1.25051 32.3764 0.941579 32.257 0.653353C32.1376 0.365127 31.9625 0.103256 31.7419 -0.117298C31.5212 -0.337853 31.2592 -0.512769 30.971 -0.632055C30.6827 -0.75134 30.3737 -0.812656 30.0617 -0.8125H3.92959C3.2997 -0.8125 2.69561 -0.562277 2.25021 -0.116878C1.80482 0.328521 1.55459 0.932611 1.55459 1.5625V21.0375L-0.771719 32.0634C-0.801554 32.2224 -0.815083 32.3839 -0.812094 32.5456C-0.811784 33.1455 -0.573824 33.7208 -0.150299 34.1457C0.273227 34.5705 0.847821 34.8103 1.44772 34.8125H32.5448C33.1457 34.8112 33.7217 34.572 34.1468 34.1472C34.5718 33.7224 34.8113 33.1465 34.8129 32.5456C34.8129 32.3912 34.8058 32.2142 34.7725 32.0634ZM30.0617 1.5625V20.5625H3.92959V1.5625H30.0617ZM32.4153 32.4375H1.57478L3.82984 21.75H30.1603L32.4153 32.4375Z" fill="white"/>
</g>
<defs>
<clipPath id="clip0_1901_7701">
<rect width="36" height="36" fill="white"/>
</clipPath>
</defs>
</svg>
