<svg width="40" height="27" viewBox="0 0 40 27" fill="none" xmlns="http://www.w3.org/2000/svg">
<path d="M27.6593 12.795C30.8143 12.795 33.5286 9.97786 33.5286 6.30929C33.5286 2.685 30.8 0 27.6593 0C24.5193 0 21.79 2.74357 21.79 6.33857C21.79 9.97786 24.5043 12.795 27.6593 12.795ZM10.77 13.1329C13.4993 13.1329 15.8771 10.6671 15.8771 7.48286C15.8771 4.32857 13.4843 1.995 10.77 1.995C8.04143 1.995 5.63429 4.38714 5.64929 7.51286C5.64929 10.6671 8.02643 13.1329 10.7707 13.1329M2.58286 26.3829H13.7343C12.2086 24.1671 14.0721 19.7064 17.2271 17.2707C15.5986 16.185 13.4993 15.3779 10.7557 15.3779C4.13786 15.3771 0 20.2629 0 24.3279C0 25.6493 0.733571 26.3829 2.58286 26.3829ZM18.43 26.3829H36.8743C39.1779 26.3829 40 25.7221 40 24.4307C40 20.645 35.26 15.4214 27.645 15.4214C20.0443 15.4214 15.3043 20.645 15.3043 24.4314C15.3043 25.7221 16.1257 26.3829 18.43 26.3829Z" fill="#2B7FFF"/>
</svg>
