<svg width="40" height="40" viewBox="0 0 40 40" fill="none" xmlns="http://www.w3.org/2000/svg">
<path fill-rule="evenodd" clip-rule="evenodd" d="M23.811 3.5707C23.3416 3.01895 22.7579 2.57578 22.1004 2.27187C21.4428 1.96795 20.7271 1.81055 20.0027 1.81055C19.2783 1.81055 18.5625 1.96795 17.9049 2.27187C17.2474 2.57578 16.6637 3.01895 16.1943 3.5707L16.1243 3.65403C15.9531 3.85494 15.7365 4.0123 15.4925 4.11314C15.2486 4.21397 14.9841 4.25541 14.721 4.23404L14.6127 4.2257C13.8909 4.16786 13.1651 4.26747 12.4856 4.51766C11.8061 4.76785 11.1891 5.16264 10.6771 5.67473C10.1652 6.18683 9.7706 6.80401 9.52062 7.48359C9.27064 8.16317 9.17125 8.88893 9.22932 9.6107L9.23599 9.71903C9.25736 9.98217 9.21593 10.2466 9.11509 10.4906C9.01425 10.7346 8.8569 10.9511 8.65599 11.1224L8.57266 11.1924C8.0209 11.6618 7.57774 12.2454 7.27382 12.903C6.96991 13.5606 6.8125 14.2763 6.8125 15.0007C6.8125 15.7251 6.96991 16.4408 7.27382 17.0984C7.57774 17.756 8.0209 18.3396 8.57266 18.809L8.65599 18.879C8.8569 19.0503 9.01425 19.2668 9.11509 19.5108C9.21593 19.7548 9.25736 20.0192 9.23599 20.2824L9.22765 20.3907C9.12761 21.6302 9.49308 22.8626 10.2527 23.8472C11.0123 24.8318 12.1116 25.498 13.336 25.7157V36.6674C13.3359 36.9691 13.4178 37.2652 13.5729 37.5241C13.7279 37.7829 13.9503 37.9948 14.2164 38.1372C14.4824 38.2795 14.7821 38.347 15.0835 38.3323C15.3849 38.3177 15.6767 38.2215 15.9277 38.054L20.0027 35.3374L24.0777 38.054C24.3287 38.2215 24.6204 38.3177 24.9218 38.3323C25.2232 38.347 25.5229 38.2795 25.7889 38.1372C26.055 37.9948 26.2774 37.7829 26.4324 37.5241C26.5875 37.2652 26.6694 36.9691 26.6693 36.6674V25.7174C27.894 25.4996 28.9935 24.8332 29.7532 23.8482C30.5129 22.8633 30.8781 21.6305 30.7777 20.3907L30.7693 20.2824C30.7479 20.0192 30.7894 19.7548 30.8902 19.5108C30.9911 19.2668 31.1484 19.0503 31.3493 18.879L31.4327 18.809C31.9844 18.3396 32.4276 17.756 32.7315 17.0984C33.0354 16.4408 33.1928 15.7251 33.1928 15.0007C33.1928 14.2763 33.0354 13.5606 32.7315 12.903C32.4276 12.2454 31.9844 11.6618 31.4327 11.1924L31.3493 11.1224C31.1484 10.9511 30.9911 10.7346 30.8902 10.4906C30.7894 10.2466 30.7479 9.98217 30.7693 9.71903L30.7777 9.6107C30.8355 8.88892 30.7359 8.16318 30.4857 7.48368C30.2355 6.80417 29.8407 6.18712 29.3286 5.67518C28.8165 5.16325 28.1994 4.76865 27.5198 4.51867C26.8402 4.26869 26.1144 4.1693 25.3927 4.22737L25.2843 4.23404C25.0212 4.25541 24.7567 4.21397 24.5128 4.11314C24.2688 4.0123 24.0522 3.85494 23.881 3.65403L23.811 3.5707ZM16.6693 33.554V26.9174C17.586 27.7373 18.7728 28.1906 20.0027 28.1906C21.2325 28.1906 22.4193 27.7373 23.336 26.9174V33.5507L20.9277 31.9457C20.6538 31.763 20.3319 31.6655 20.0027 31.6655C19.6734 31.6655 19.3515 31.763 19.0777 31.9457L16.6693 33.554ZM24.5143 14.5124C24.8179 14.198 24.9859 13.777 24.9821 13.34C24.9783 12.903 24.803 12.485 24.494 12.176C24.185 11.867 23.767 11.6917 23.33 11.6879C22.893 11.6841 22.472 11.8521 22.1577 12.1557L18.336 15.9774L17.8477 15.489C17.5333 15.1854 17.1123 15.0174 16.6753 15.0212C16.2383 15.025 15.8203 15.2003 15.5113 15.5093C15.2023 15.8184 15.027 16.2364 15.0232 16.6734C15.0194 17.1104 15.1874 17.5314 15.491 17.8457L17.1577 19.5124C17.4702 19.8248 17.894 20.0003 18.336 20.0003C18.7779 20.0003 19.2018 19.8248 19.5143 19.5124L24.5143 14.5124Z" fill="#407BFF"/>
</svg>
